<svg width="24" height="24" viewBox="0 0 24 24" fill="none" xmlns="http://www.w3.org/2000/svg">
<path fill-rule="evenodd" clip-rule="evenodd" d="M5.29412 0C2.37026 0 0 2.37026 0 5.29412V18.7059C0 21.6297 2.37026 24 5.29412 24H18.7059C21.6297 24 24 21.6297 24 18.7059V5.29412C24 2.37026 21.6297 0 18.7059 0H5.29412ZM6.26706 6.9349L4.41412 11.8761C4.32759 12.1068 4.49816 12.3529 4.74459 12.3529H6.82353C7.08997 12.3529 7.26033 12.6369 7.13495 12.872L4.86505 17.128C4.73967 17.3631 4.91003 17.6471 5.17647 17.6471H7.69338C7.84208 17.6471 7.97449 17.5544 8.02587 17.4148C8.823 15.2501 10.3965 11.5359 10.9412 12.3529C11.0777 12.6259 10.8916 13.5561 10.6857 14.5851C10.3592 16.2171 9.98288 18.0977 10.7647 18C12.0474 17.8397 12.3103 17.2423 13.4066 14.752C13.5169 14.5014 13.6356 14.2316 13.7647 13.9412C14.513 12.2576 15.3343 11.6427 15.1765 12.3529C14.4706 15.5294 14.1176 17.8235 15.7059 18C17.4598 18.1949 18.3529 16.4118 19.0588 14.4706C19.7647 12.5294 20.4706 10.4118 19.4118 11.2941C18.3529 12.1765 17.1176 13.0588 17.1176 11.4706C17.1176 10.9153 17.2902 10.1229 17.4619 9.3344C17.7812 7.86753 18.0976 6.41464 17.2941 6.52941C16.3697 6.66148 15.6429 7.97957 14.6699 9.74402C14.3428 10.3373 13.9879 10.981 13.5882 11.6471C12.7075 13.115 12.9664 11.7608 13.2815 10.1127C13.5347 8.78887 13.8241 7.27538 13.5882 6.88235C13.0588 6 12 6.52941 10.4118 9.35294C8.82353 12.1765 7.94118 12.8824 8.47059 11.2941C8.53176 11.1106 8.60236 10.9106 8.67666 10.7001C9.24542 9.08872 10.0314 6.86196 8.47059 6.70588L6.59753 6.70588C6.45041 6.70588 6.31872 6.79714 6.26706 6.9349Z" fill="#15180D"/>
</svg>
